<svg width="597" height="548" viewBox="0 0 597 548" fill="none" xmlns="http://www.w3.org/2000/svg">
<path d="M122.812 274C122.812 265.716 129.528 259 137.813 259H282.367C288.277 259 293.636 262.471 296.054 267.864L409.92 521.864C414.369 531.788 407.108 543 396.232 543H137.813C129.528 543 122.812 536.284 122.812 528V274Z" fill="#111418"/>
<path d="M137.812 259.5H282.366C288.079 259.5 293.26 262.855 295.598 268.068L409.464 522.068C413.764 531.662 406.745 542.5 396.232 542.5H137.812C129.804 542.5 123.313 536.008 123.312 528V274C123.313 265.992 129.804 259.5 137.812 259.5Z" stroke="white" stroke-opacity="0.15"/>
<rect x="122.812" y="305.734" width="352.304" height="237.266" rx="15" fill="#0B0E12"/>
<rect x="122.812" y="305.734" width="352.304" height="237.266" rx="15" fill="url(#paint0_linear_268_488)" fill-opacity="0.1"/>
<rect x="123.312" y="306.234" width="351.304" height="236.266" rx="14.5" stroke="white" stroke-opacity="0.15"/>
<g clip-path="url(#clip0_268_488)">
<rect x="189.984" y="19" width="269.28" height="321.314" rx="8" transform="rotate(4.49367 189.984 19)" fill="url(#paint1_linear_268_488)"/>
<path d="M218.442 84.4872L221.196 95.1127C221.739 97.2084 222.465 99.2524 223.366 101.221C227.544 110.35 240.191 111.183 245.53 102.681L249.273 96.7199C252.616 91.3966 260.51 91.8305 263.249 97.4881L266.851 104.929C269.693 110.798 277.301 112.421 282.29 108.223L287.013 104.249C290.377 101.419 295.195 101.118 298.885 103.507L301.315 105.08C304.734 107.292 308.659 108.599 312.722 108.876L346.433 111.179" stroke="white" stroke-width="10" stroke-linecap="round"/>
</g>
<path d="M469.146 32.1906C472.133 29.204 473.812 25.1532 473.812 20.929C473.813 16.7049 472.136 12.6536 469.149 9.66633C466.163 6.67906 462.112 5.00053 457.888 5C453.664 4.99947 449.612 6.67698 446.625 9.66351L371.22 85.0871C369.908 86.3951 368.938 88.0055 368.394 89.7767L360.931 114.366C360.785 114.855 360.774 115.374 360.899 115.868C361.024 116.363 361.281 116.814 361.642 117.174C362.002 117.534 362.454 117.79 362.949 117.915C363.443 118.039 363.962 118.027 364.451 117.88L389.045 110.422C390.815 109.884 392.425 108.92 393.735 107.614L469.146 32.1906Z" fill="#05070B"/>
<path d="M469.146 32.1906C472.133 29.204 473.812 25.1532 473.812 20.929C473.813 16.7049 472.136 12.6536 469.149 9.66633C466.163 6.67906 462.112 5.00053 457.888 5C453.664 4.99947 449.612 6.67698 446.625 9.66351L371.22 85.0871C369.908 86.3951 368.938 88.0055 368.394 89.7767L360.931 114.366C360.785 114.855 360.774 115.374 360.899 115.868C361.024 116.363 361.281 116.814 361.642 117.174C362.002 117.534 362.454 117.79 362.949 117.915C363.443 118.039 363.962 118.027 364.451 117.88L389.045 110.422C390.815 109.884 392.425 108.92 393.735 107.614L469.146 32.1906Z" fill="url(#paint2_linear_268_488)" fill-opacity="0.2"/>
<path d="M469.146 32.1906C472.133 29.204 473.812 25.1532 473.812 20.929C473.813 16.7049 472.136 12.6536 469.149 9.66633C466.163 6.67906 462.112 5.00053 457.888 5C453.664 4.99947 449.612 6.67698 446.625 9.66351L371.22 85.0871C369.908 86.3951 368.938 88.0055 368.394 89.7767L360.931 114.366C360.785 114.855 360.774 115.374 360.899 115.868C361.024 116.363 361.281 116.814 361.642 117.174C362.002 117.534 362.454 117.79 362.949 117.915C363.443 118.039 363.962 118.027 364.451 117.88L389.045 110.422C390.815 109.884 392.425 108.92 393.735 107.614L469.146 32.1906Z" stroke="white" stroke-opacity="0.15" stroke-linecap="round" stroke-linejoin="round"/>
<rect x="110" y="428" width="377" height="120" fill="url(#paint3_linear_268_488)"/>
<defs>
<linearGradient id="paint0_linear_268_488" x1="298.964" y1="305.734" x2="298.964" y2="543" gradientUnits="userSpaceOnUse">
<stop stop-color="white"/>
<stop offset="0.630927" stop-color="white" stop-opacity="0"/>
</linearGradient>
<linearGradient id="paint1_linear_268_488" x1="170.75" y1="-33.2135" x2="487.681" y2="263.99" gradientUnits="userSpaceOnUse">
<stop stop-color="#FFCDA1"/>
<stop offset="0.511629" stop-color="#D17D47"/>
<stop offset="1" stop-color="#AF3825"/>
</linearGradient>
<linearGradient id="paint2_linear_268_488" x1="417.312" y1="-11.5366" x2="389.062" y2="118" gradientUnits="userSpaceOnUse">
<stop stop-color="white"/>
<stop offset="1" stop-color="white" stop-opacity="0"/>
</linearGradient>
<linearGradient id="paint3_linear_268_488" x1="298.5" y1="428" x2="298.5" y2="548" gradientUnits="userSpaceOnUse">
<stop offset="0.0224177" stop-color="#AF3825" stop-opacity="0"/>
<stop offset="0.497124" stop-color="#AF3825" stop-opacity="0.35"/>
<stop offset="1" stop-color="#AF3825"/>
</linearGradient>
<clipPath id="clip0_268_488">
<rect width="294" height="287" fill="white" transform="translate(164.812 19)"/>
</clipPath>
</defs>
</svg>
