<svg width="603" height="562" viewBox="0 0 603 562" fill="none" xmlns="http://www.w3.org/2000/svg">
<g clip-path="url(#clip0_133_3929)">
<path d="M126 293C126 284.716 132.716 278 141 278H285.554C291.465 278 296.824 281.471 299.242 286.864L413.107 540.864C417.556 550.788 410.295 562 399.42 562H141C132.716 562 126 555.284 126 547V293Z" fill="#111418"/>
<path d="M141 278.5H285.554C291.267 278.5 296.448 281.855 298.785 287.068L412.651 541.068C416.952 550.662 409.933 561.5 399.42 561.5H141C132.992 561.5 126.5 555.008 126.5 547V293L126.505 292.626C126.703 284.791 133.117 278.5 141 278.5Z" stroke="white" stroke-opacity="0.15"/>
<rect x="156" y="106" width="245.049" height="292.4" rx="8" fill="url(#paint0_linear_133_3929)"/>
<path d="M299.723 181H331.523M331.523 181V212.8M331.523 181L286.473 226.05L259.973 199.55L225.523 234" stroke="white" stroke-width="6" stroke-linecap="round" stroke-linejoin="round"/>
<rect x="201" y="66" width="245.049" height="292.4" rx="8" fill="url(#paint1_linear_133_3929)"/>
<path d="M344.723 128H376.523M376.523 128V159.8M376.523 128L341.373 163.151C335.906 168.618 327.041 168.618 321.574 163.151L314.873 156.449C309.406 150.982 300.541 150.982 295.074 156.449L270.523 181" stroke="white" stroke-width="10" stroke-linecap="round" stroke-linejoin="round"/>
<rect x="126" y="324.734" width="352.304" height="237.266" rx="15" fill="#0B0E12"/>
<rect x="126" y="324.734" width="352.304" height="237.266" rx="15" fill="url(#paint2_linear_133_3929)" fill-opacity="0.1"/>
<rect x="126.5" y="325.234" width="351.304" height="236.266" rx="14.5" stroke="white" stroke-opacity="0.15"/>
<rect x="116" y="470" width="377" height="120" fill="url(#paint3_linear_133_3929)"/>
</g>
<defs>
<linearGradient id="paint0_linear_133_3929" x1="138.496" y1="58.485" x2="337.003" y2="315.359" gradientUnits="userSpaceOnUse">
<stop stop-color="#FFCDA1"/>
<stop offset="0.511629" stop-color="#D17D47"/>
<stop offset="1" stop-color="#AF3825"/>
</linearGradient>
<linearGradient id="paint1_linear_133_3929" x1="183.496" y1="18.485" x2="471.908" y2="288.945" gradientUnits="userSpaceOnUse">
<stop stop-color="#FFCDA1"/>
<stop offset="0.511629" stop-color="#D17D47"/>
<stop offset="1" stop-color="#AF3825"/>
</linearGradient>
<linearGradient id="paint2_linear_133_3929" x1="302.152" y1="324.734" x2="302.152" y2="562" gradientUnits="userSpaceOnUse">
<stop stop-color="white"/>
<stop offset="0.630927" stop-color="white" stop-opacity="0"/>
</linearGradient>
<linearGradient id="paint3_linear_133_3929" x1="304.5" y1="470" x2="304.5" y2="590" gradientUnits="userSpaceOnUse">
<stop offset="0.0224177" stop-color="#AF3825" stop-opacity="0"/>
<stop offset="0.497124" stop-color="#AF3825" stop-opacity="0.35"/>
<stop offset="1" stop-color="#AF3825"/>
</linearGradient>
<clipPath id="clip0_133_3929">
<rect width="603" height="562" fill="white"/>
</clipPath>
</defs>
</svg>
