<svg width="398" height="320" viewBox="0 0 398 320" fill="none" xmlns="http://www.w3.org/2000/svg">
<path d="M23 32.9999C23 24.7156 29.7157 17.9999 38 17.9999H182.554C188.465 17.9999 193.824 21.4706 196.242 26.8639L310.107 280.864C314.556 290.788 307.295 302 296.42 302H38C29.7157 302 23 295.284 23 287V32.9999Z" fill="#111418"/>
<path d="M38 18.4999H182.554C188.267 18.4999 193.448 21.8549 195.785 27.0682L309.651 281.068C313.952 290.661 306.933 301.5 296.42 301.5H38C29.9919 301.5 23.5 295.008 23.5 287V32.9999L23.5049 32.6259C23.7033 24.7906 30.1169 18.4999 38 18.4999Z" stroke="white" stroke-opacity="0.15"/>
<rect x="48.8828" y="38.1896" width="301.975" height="143.797" rx="8" transform="rotate(2.21123 48.8828 38.1896)" fill="url(#paint0_linear_168_3861)"/>
<rect x="23" y="64.7341" width="352.304" height="237.266" rx="15" fill="#0B0E12"/>
<rect x="23" y="64.7341" width="352.304" height="237.266" rx="15" fill="url(#paint1_linear_168_3861)" fill-opacity="0.1"/>
<rect x="23.5" y="65.2341" width="351.304" height="236.266" rx="14.5" stroke="white" stroke-opacity="0.15"/>
<defs>
<linearGradient id="paint0_linear_168_3861" x1="27.3132" y1="14.8225" x2="107.97" y2="225.207" gradientUnits="userSpaceOnUse">
<stop stop-color="#FFCDA1"/>
<stop offset="0.338245" stop-color="#D17D47"/>
<stop offset="1" stop-color="#AF3825"/>
</linearGradient>
<linearGradient id="paint1_linear_168_3861" x1="199.152" y1="64.7341" x2="199.152" y2="302" gradientUnits="userSpaceOnUse">
<stop stop-color="white"/>
<stop offset="0.630927" stop-color="white" stop-opacity="0"/>
</linearGradient>
</defs>
</svg>
