<svg width="377" height="296" viewBox="0 0 377 296" fill="none" xmlns="http://www.w3.org/2000/svg">
<path d="M12.8594 15C12.8594 6.71574 19.5751 0 27.8594 0H172.414C178.324 0 183.683 3.47074 186.101 8.86401L299.967 262.864C304.415 272.788 297.155 284 286.279 284H27.8594C19.5751 284 12.8594 277.284 12.8594 269V15Z" fill="#111418"/>
<path d="M27.8594 0.5H172.413C178.126 0.5 183.307 3.85502 185.645 9.06836L299.511 263.068C303.811 272.662 296.792 283.5 286.279 283.5H27.8594C19.8512 283.5 13.3594 277.008 13.3594 269V15L13.3643 14.626C13.5626 6.79071 19.9763 0.500001 27.8594 0.5Z" stroke="white" stroke-opacity="0.15"/>
<rect x="37.8555" y="26.9619" width="301.975" height="143.797" rx="8" fill="url(#paint0_linear_208_1254)"/>
<rect x="12.8594" y="46.7343" width="352.304" height="237.266" rx="15" fill="#0B0E12"/>
<rect x="12.8594" y="46.7343" width="352.304" height="237.266" rx="15" fill="url(#paint1_linear_208_1254)" fill-opacity="0.1"/>
<rect x="13.3594" y="47.2343" width="351.304" height="236.266" rx="14.5" stroke="white" stroke-opacity="0.15"/>
<rect y="190" width="377" height="106" fill="url(#paint2_linear_208_1254)"/>
<defs>
<linearGradient id="paint0_linear_208_1254" x1="16.2858" y1="3.59483" x2="96.9428" y2="213.979" gradientUnits="userSpaceOnUse">
<stop stop-color="#FFCDA1"/>
<stop offset="0.338245" stop-color="#D17D47"/>
<stop offset="1" stop-color="#AF3825"/>
</linearGradient>
<linearGradient id="paint1_linear_208_1254" x1="189.011" y1="46.7343" x2="189.011" y2="284" gradientUnits="userSpaceOnUse">
<stop stop-color="white"/>
<stop offset="0.630927" stop-color="white" stop-opacity="0"/>
</linearGradient>
<linearGradient id="paint2_linear_208_1254" x1="188.5" y1="190" x2="188.5" y2="296" gradientUnits="userSpaceOnUse">
<stop offset="0.0224177" stop-color="#AF3825" stop-opacity="0"/>
<stop offset="0.497124" stop-color="#AF3825" stop-opacity="0.35"/>
<stop offset="1" stop-color="#AF3825"/>
</linearGradient>
</defs>
</svg>
