<svg width="23" height="23" viewBox="0 0 23 23" fill="none" xmlns="http://www.w3.org/2000/svg">
<path d="M16.1667 1C19.3867 1 22 3.61333 22 6.83333V16.1667C22 19.3867 19.3867 22 16.1667 22H6.83333C3.61333 22 1 19.3867 1 16.1667V6.83333C1 3.61333 3.61333 1 6.83333 1H11.5H16.1667Z" stroke="white" stroke-width="2" stroke-linecap="round" stroke-linejoin="round"/>
<path d="M11.5026 6.8335C14.0809 6.8335 16.1693 8.92183 16.1693 11.5002C16.1693 14.0785 14.0809 16.1668 11.5026 16.1668C8.92427 16.1668 6.83594 14.0785 6.83594 11.5002C6.83594 8.92183 8.92427 6.8335 11.5026 6.8335Z" stroke="white" stroke-width="2" stroke-linecap="round" stroke-linejoin="round"/>
<path d="M17.332 7.4165C18.2985 7.4165 19.082 6.633 19.082 5.6665C19.082 4.70001 18.2985 3.9165 17.332 3.9165C16.3655 3.9165 15.582 4.70001 15.582 5.6665C15.582 6.633 16.3655 7.4165 17.332 7.4165Z" fill="white"/>
</svg>
