<svg width="30" height="30" viewBox="0 0 30 30" fill="none" xmlns="http://www.w3.org/2000/svg">
<path d="M18.3537 14.3906L7.97656 12.5625V26.0709C7.97644 26.2178 8.0053 26.3632 8.06148 26.4988C8.11767 26.6345 8.20008 26.7577 8.30398 26.8614C8.40789 26.9651 8.53125 27.0473 8.66699 27.1033C8.80273 27.1593 8.94818 27.1879 9.095 27.1875H27.0013C27.1482 27.1881 27.2939 27.1597 27.4298 27.1038C27.5658 27.048 27.6894 26.9658 27.7935 26.8621C27.8976 26.7583 27.9802 26.635 28.0365 26.4992C28.0928 26.3635 28.1217 26.2179 28.1216 26.0709V21.0938L18.3537 14.3906Z" fill="#185C37"/>
<path d="M18.3537 2.8125H9.095C8.94818 2.81213 8.80273 2.84075 8.66699 2.89671C8.53125 2.95266 8.40789 3.03487 8.30398 3.1386C8.20008 3.24233 8.11767 3.36555 8.06148 3.5012C8.0053 3.63684 7.97644 3.78224 7.97656 3.92907V8.90625L18.3537 15L23.8484 16.8281L28.1216 15V8.90625L18.3537 2.8125Z" fill="#21A366"/>
<path d="M7.97656 8.90625H18.3537V15H7.97656V8.90625Z" fill="#107C41"/>
<path opacity="0.1" d="M15.4034 7.6875H7.97656V22.9219H15.4034C15.6994 22.9204 15.9828 22.8024 16.1923 22.5934C16.4019 22.3844 16.5206 22.1012 16.5228 21.8053V8.80406C16.5206 8.50813 16.4019 8.22499 16.1923 8.01599C15.9828 7.80699 15.6994 7.68897 15.4034 7.6875Z" fill="black"/>
<path opacity="0.2" d="M14.7931 8.29688H7.97656V23.5312H14.7931C15.0891 23.5298 15.3725 23.4118 15.582 23.2028C15.7916 22.9938 15.9103 22.7106 15.9125 22.4147V9.41344C15.9103 9.11751 15.7916 8.83436 15.582 8.62537C15.3725 8.41637 15.0891 8.29835 14.7931 8.29688Z" fill="black"/>
<path opacity="0.2" d="M14.7931 8.29688H7.97656V22.3125H14.7931C15.0891 22.311 15.3725 22.193 15.582 21.984C15.7916 21.775 15.9103 21.4919 15.9125 21.1959V9.41344C15.9103 9.11751 15.7916 8.83436 15.582 8.62537C15.3725 8.41637 15.0891 8.29835 14.7931 8.29688Z" fill="black"/>
<path opacity="0.2" d="M14.1828 8.29688H7.97656V22.3125H14.1828C14.4787 22.311 14.7622 22.193 14.9717 21.984C15.1812 21.775 15.3 21.4919 15.3022 21.1959V9.41344C15.3 9.11751 15.1812 8.83436 14.9717 8.62537C14.7622 8.41637 14.4787 8.29835 14.1828 8.29688Z" fill="black"/>
<path d="M2.99438 8.29688H14.1862C14.4827 8.29663 14.7672 8.4141 14.977 8.62347C15.1869 8.83284 15.3051 9.11698 15.3056 9.41344V20.5866C15.3051 20.883 15.1869 21.1672 14.977 21.3765C14.7672 21.5859 14.4827 21.7034 14.1862 21.7031H2.99438C2.84748 21.7036 2.70192 21.6751 2.56608 21.6192C2.43023 21.5633 2.30676 21.4811 2.20275 21.3774C2.09875 21.2736 2.01625 21.1504 1.96001 21.0147C1.90377 20.8789 1.87488 20.7335 1.875 20.5866V9.41344C1.87488 9.26654 1.90377 9.12106 1.96001 8.98536C2.01625 8.84965 2.09875 8.72639 2.20275 8.62264C2.30676 8.5189 2.43023 8.43672 2.56608 8.38081C2.70192 8.32491 2.84748 8.29639 2.99438 8.29688Z" fill="url(#paint0_linear_128_306)"/>
<path d="M5.34375 18.631L7.69781 14.9898L5.54156 11.3691H7.27313L8.44969 13.6876C8.55844 13.907 8.63719 14.0701 8.67281 14.1788H8.68875C8.76562 14.0032 8.84687 13.8326 8.9325 13.667L10.1906 11.3729H11.7844L9.57281 14.9729L11.8406 18.6338H10.1447L8.78531 16.0923C8.72237 15.9829 8.66875 15.8684 8.625 15.7501H8.6025C8.56277 15.8654 8.50992 15.9758 8.445 16.0791L7.04531 18.631H5.34375Z" fill="white"/>
<path d="M27.0078 2.81251H18.3594V8.90626H28.1272V3.92907C28.1273 3.78217 28.0984 3.63669 28.0422 3.50098C27.9859 3.36527 27.9034 3.24201 27.7994 3.13827C27.6954 3.03452 27.572 2.95234 27.4361 2.89644C27.3003 2.84054 27.1547 2.81201 27.0078 2.81251Z" fill="#33C481"/>
<path d="M18.3594 15H28.1272V21.0938H18.3594V15Z" fill="#107C41"/>
<defs>
<linearGradient id="paint0_linear_128_306" x1="4.21313" y1="7.41938" x2="12.9675" y2="22.5806" gradientUnits="userSpaceOnUse">
<stop stop-color="#18884F"/>
<stop offset="0.5" stop-color="#117E43"/>
<stop offset="1" stop-color="#0B6631"/>
</linearGradient>
</defs>
</svg>
