<svg width="27" height="21" viewBox="0 0 27 21" fill="none" xmlns="http://www.w3.org/2000/svg">
<g clip-path="url(#clip0_128_345)">
<path d="M6.13638 20.8967V10.1344L2.90113 7.08095L0 5.38647V18.9974C0 20.0483 0.825293 20.8967 1.84096 20.8967H6.13638Z" fill="#4285F4"/>
<path d="M20.8672 20.8966H25.1626C26.1813 20.8966 27.0036 20.045 27.0036 18.9973V5.38647L23.7176 7.32729L20.8672 10.1343V20.8966Z" fill="#34A853"/>
<path d="M6.13554 10.1344L5.69531 5.92925L6.13554 1.90454L13.4992 7.60218L20.8628 1.90454L21.3552 5.71196L20.8628 10.1344L13.4992 15.832L6.13554 10.1344Z" fill="#EA4335"/>
<path d="M20.8672 1.90455V10.1344L27.0036 5.38641V2.85412C27.0036 0.50549 24.4048 -0.833396 22.5855 0.575127L20.8672 1.90455Z" fill="#FBBC04"/>
<path d="M0 5.38646L2.82224 7.57024L6.13638 10.1344V1.9046L4.41809 0.575177C2.59559 -0.833455 0 0.505539 0 2.85406V5.38646Z" fill="#C5221F"/>
</g>
<defs>
<clipPath id="clip0_128_345">
<rect width="27" height="21" fill="white"/>
</clipPath>
</defs>
</svg>
