<svg width="22" height="23" viewBox="0 0 22 23" fill="none" xmlns="http://www.w3.org/2000/svg">
<path d="M13.7656 4.71631V9.06719L15.2877 10.0244C15.3427 10.0362 15.3995 10.0362 15.4545 10.0244L21.9987 5.61238C21.9939 5.39825 21.9156 5.19229 21.7768 5.02911C21.6381 4.86594 21.4474 4.75548 21.2369 4.71631H13.7656Z" fill="#0072C6"/>
<path d="M13.7619 10.6901L15.1497 11.6433C15.2146 11.6831 15.2893 11.7041 15.3654 11.7041C15.4415 11.7041 15.5161 11.6831 15.581 11.6433C15.3427 11.7871 21.9942 7.37109 21.9942 7.37109V15.3674C22.0115 15.5295 21.9932 15.6933 21.9406 15.8476C21.888 16.0018 21.8024 16.1427 21.6896 16.2603C21.5769 16.378 21.4398 16.4696 21.2879 16.5287C21.1361 16.5879 20.9731 16.6131 20.8105 16.6027H13.7611L13.7619 10.6901ZM6.57742 8.68422C6.34685 8.6832 6.12029 8.74452 5.92172 8.86171C5.72315 8.9789 5.55995 9.14758 5.44939 9.34992C5.14757 9.88641 5.00277 10.497 5.03154 11.1119C5.00018 11.7255 5.14517 12.3353 5.44939 12.8691C5.55942 13.0631 5.71859 13.2248 5.9109 13.3379C6.10321 13.4509 6.32189 13.5114 6.54497 13.5132C6.76805 13.5149 6.98767 13.458 7.18175 13.348C7.37583 13.238 7.53755 13.0788 7.65065 12.8865C7.95213 12.3554 8.09417 11.7487 8.05976 11.1389C8.09417 10.51 7.95687 9.88367 7.66256 9.32688C7.5571 9.13132 7.40037 8.96817 7.20919 8.85494C7.01801 8.74172 6.79961 8.6827 6.57742 8.68422Z" fill="#0072C6"/>
<path d="M0 2.5063V19.5277L12.9486 22.2429V0L0 2.5063ZM8.66521 13.8947C8.42304 14.2362 8.10097 14.5133 7.72711 14.7017C7.35325 14.8902 6.93895 14.9843 6.52036 14.9759C6.11232 14.9831 5.70856 14.8917 5.34343 14.7094C4.9783 14.5271 4.66259 14.2593 4.42317 13.9288C3.85538 13.136 3.57133 12.175 3.61686 11.2009C3.56867 10.1791 3.85786 9.1697 4.43985 8.32839C4.68528 7.98055 5.01244 7.69835 5.39255 7.50664C5.77265 7.31492 6.19405 7.21957 6.61966 7.22896C7.0247 7.2211 7.42549 7.31266 7.78694 7.4956C8.1484 7.67855 8.4595 7.9473 8.69302 8.27835C9.25513 9.08836 9.53435 10.0612 9.48741 11.046C9.53712 12.0605 9.24786 13.0627 8.66521 13.8947Z" fill="#0072C6"/>
</svg>
