<svg width="22" height="22" viewBox="0 0 22 22" fill="none" xmlns="http://www.w3.org/2000/svg">
<path d="M7.27502 1.77712L6.70987 1.64379C6.55223 1.25332 6.3535 1.03934 6.14823 1.03906H2.95568C2.72294 1.03906 2.49973 1.31368 2.33516 1.80251C2.17058 2.29134 2.07812 2.95433 2.07812 3.64564L2.07813 18.1793C2.07813 18.8706 2.17058 19.5336 2.33516 20.0224C2.49973 20.5112 2.72294 20.7858 2.95568 20.7858H17.3709C18.0009 20.7858 18.6051 20.5112 19.0506 20.0224C19.496 19.5336 19.7463 18.8706 19.7463 18.1793V4.98842C19.7463 4.29711 19.496 3.63412 19.0506 3.14529C18.6051 2.65646 18.0009 2.38184 17.3709 2.38184H7.83665C7.63139 2.38157 7.43266 2.16759 7.27502 1.77712Z" fill="#EF5350"/>
<path d="M10.2252 9.62378C9.90238 10.6312 9.49052 11.6079 8.99448 12.5423C8.7683 12.9479 8.56823 13.3675 8.3955 13.7985L8.52766 13.7488C9.83991 13.2479 11.1967 12.8728 12.5799 12.6284C12.4037 12.5064 12.2339 12.3754 12.0707 12.2356C11.2767 11.5061 10.6476 10.6157 10.2252 9.62378ZM18.0751 14.2459C17.9298 14.3811 17.7572 14.4835 17.5689 14.5461C17.3806 14.6086 17.181 14.6299 16.9838 14.6085C15.7269 14.5739 14.4923 14.2682 13.3644 13.7124C11.7018 13.846 10.0574 14.1507 8.45734 14.6218L8.23423 14.7067C6.72707 17.2809 5.61276 18.4291 4.62819 18.4291C4.44306 18.4284 4.26056 18.3852 4.09469 18.303L3.51267 17.9211L3.48479 17.8568C3.39117 17.6526 3.36854 17.423 3.42052 17.2045C3.82195 16.086 4.63996 15.1659 5.7037 14.6363C6.04431 14.4054 6.40557 14.2065 6.78284 14.0422C7.14175 13.4093 7.52976 12.6745 7.93716 11.8548C8.48237 10.7151 8.9235 9.52849 9.25518 8.30941L9.24911 8.29486C8.71341 7.04372 8.61975 5.64745 8.98357 4.33598C9.11695 3.86794 9.49283 3.39506 9.94631 3.39506H10.2337C10.3702 3.39347 10.5057 3.41903 10.6322 3.47023C10.7588 3.52143 10.8739 3.59727 10.9709 3.69334C11.7699 4.49239 11.4038 6.44213 10.9976 8.05236L10.9551 8.22332C11.3159 9.40884 11.9835 10.478 12.8903 11.3225C13.2229 11.5818 13.572 11.8192 13.9355 12.0331C14.4581 11.9747 14.9835 11.9448 15.5094 11.9433C17.0129 11.9433 17.9174 12.2149 18.2703 12.7751C18.3999 12.9721 18.4534 13.2097 18.4206 13.4432C18.4141 13.7455 18.2901 14.0334 18.0751 14.2459ZM19.4003 0H2.42504C1.78188 0 1.16506 0.255495 0.710279 0.710279C0.255495 1.16506 0 1.78188 0 2.42504V19.4003C0 20.0435 0.255495 20.6603 0.710279 21.1151C1.16506 21.5699 1.78188 21.8254 2.42504 21.8254H19.4003C20.0435 21.8254 20.6603 21.5699 21.1151 21.1151C21.5699 20.6603 21.8254 20.0435 21.8254 19.4003V2.42504C21.8254 1.78188 21.5699 1.16506 21.1151 0.710279C20.6603 0.255495 20.0435 0 19.4003 0ZM17.5985 13.3899C17.4627 13.2613 16.9656 12.9582 15.2729 12.9582C15.22 12.9533 15.1667 12.9618 15.1179 12.983C15.0691 13.0042 15.0265 13.0374 14.994 13.0795C15.7182 13.426 16.5 13.6365 17.3003 13.7003C17.3798 13.7002 17.4593 13.6941 17.5379 13.6821L17.5791 13.6748C17.6373 13.6578 17.6761 13.6384 17.6883 13.5172C17.6611 13.4729 17.6311 13.4303 17.5985 13.3899ZM6.46153 15.1541C6.26074 15.2672 6.06827 15.3944 5.88558 15.5348C5.20616 16.0616 4.69436 16.7743 4.41237 17.5864C4.96406 17.3973 5.67702 16.6018 6.46395 15.1541H6.46153ZM10.1185 6.78042L10.1864 6.73556C10.2749 6.34391 10.3319 6.00683 10.3804 5.73765L10.4168 5.54122C10.5332 4.88525 10.5198 4.50694 10.2979 4.2123L10.1197 4.15167C10.0894 4.19747 10.0623 4.24527 10.0385 4.29475C9.8274 5.11404 9.8556 5.97666 10.1197 6.78042H10.1185Z" fill="#FFCDD2"/>
</svg>
