<svg width="34" height="26" viewBox="0 0 34 26" fill="none" xmlns="http://www.w3.org/2000/svg">
<path d="M14.7092 4.007L13.3407 2.868C12.959 2.54967 12.4778 2.37522 11.9808 2.375H4.25C3.68641 2.375 3.14591 2.59888 2.7474 2.9974C2.34888 3.39591 2.125 3.93641 2.125 4.5V21.5C2.125 22.0636 2.34888 22.6041 2.7474 23.0026C3.14591 23.4011 3.68641 23.625 4.25 23.625H29.75C30.3136 23.625 30.8541 23.4011 31.2526 23.0026C31.6511 22.6041 31.875 22.0636 31.875 21.5V6.625C31.875 6.06141 31.6511 5.52091 31.2526 5.1224C30.8541 4.72388 30.3136 4.5 29.75 4.5H16.0692C15.5722 4.49978 15.091 4.32533 14.7092 4.007Z" fill="#EF5350"/>
<path d="M23.8351 15.0581C23.5522 15.9409 23.1913 16.7967 22.7566 17.6155C22.5584 17.9709 22.3831 18.3385 22.2317 18.7162L22.3476 18.6727C23.4974 18.2338 24.6864 17.9051 25.8984 17.6909C25.744 17.584 25.5953 17.4692 25.4522 17.3467C24.7565 16.7075 24.2052 15.9273 23.8351 15.0581ZM30.7137 19.1083C30.5864 19.2268 30.4352 19.3165 30.2702 19.3713C30.1052 19.4261 29.9303 19.4448 29.7574 19.426C28.656 19.3957 27.5742 19.1279 26.5859 18.6408C25.129 18.7579 23.688 19.0249 22.2859 19.4377L22.0904 19.5121C20.7698 21.7677 19.7933 22.7739 18.9306 22.7739C18.7683 22.7733 18.6084 22.7355 18.4631 22.6634L17.9531 22.3288L17.9286 22.2724C17.8466 22.0935 17.8268 21.8923 17.8723 21.7008C18.2241 20.7208 18.9409 19.9145 19.873 19.4504C20.1715 19.2481 20.488 19.0738 20.8186 18.9298C21.1331 18.3752 21.4731 17.7313 21.8301 17.0131C22.3079 16.0144 22.6944 14.9746 22.9851 13.9063L22.9798 13.8936C22.5103 12.7972 22.4283 11.5737 22.7471 10.4245C22.8639 10.0144 23.1933 9.6 23.5907 9.6H23.8425C23.9621 9.59861 24.0808 9.621 24.1917 9.66587C24.3026 9.71074 24.4035 9.77719 24.4885 9.86137C25.1887 10.5616 24.8678 12.2701 24.5119 13.6811L24.4747 13.8309C24.7908 14.8697 25.3758 15.8066 26.1704 16.5466C26.4619 16.7739 26.7678 16.9818 27.0863 17.1692C27.5443 17.1181 28.0046 17.0919 28.4654 17.0906C29.7829 17.0906 30.5756 17.3286 30.8848 17.8195C30.9984 17.9921 31.0452 18.2003 31.0165 18.4049C31.0107 18.6698 30.9021 18.9221 30.7137 19.1083ZM31.875 6.625H17C16.4364 6.625 15.8959 6.84888 15.4974 7.2474C15.0989 7.64591 14.875 8.18641 14.875 8.75V23.625C14.875 24.1886 15.0989 24.7291 15.4974 25.1276C15.8959 25.5261 16.4364 25.75 17 25.75H31.875C32.4386 25.75 32.9791 25.5261 33.3776 25.1276C33.7761 24.7291 34 24.1886 34 23.625V8.75C34 8.18641 33.7761 7.64591 33.3776 7.2474C32.9791 6.84888 32.4386 6.625 31.875 6.625ZM30.2961 18.3582C30.1771 18.2456 29.7415 17.9799 28.2583 17.9799C28.2119 17.9756 28.1651 17.9831 28.1224 18.0016C28.0797 18.0202 28.0423 18.0493 28.0139 18.0862C28.6485 18.3899 29.3335 18.5743 30.0347 18.6302C30.1045 18.6301 30.1741 18.6248 30.243 18.6143L30.2791 18.6079C30.3301 18.593 30.3641 18.576 30.3747 18.4698C30.351 18.4309 30.3247 18.3937 30.2961 18.3582ZM20.5371 19.9041C20.3611 20.0032 20.1925 20.1147 20.0324 20.2378C19.437 20.6993 18.9885 21.3239 18.7414 22.0355C19.2249 21.8698 19.8496 21.1727 20.5392 19.9041H20.5371ZM23.7416 12.5665L23.8011 12.5272C23.8786 12.184 23.9286 11.8886 23.9711 11.6528L24.0029 11.4806C24.1049 10.9058 24.0933 10.5743 23.8988 10.3161L23.7426 10.263C23.7161 10.3031 23.6923 10.345 23.6714 10.3884C23.4865 11.1063 23.5112 11.8622 23.7426 12.5665H23.7416Z" fill="#FFCDD2"/>
</svg>
