<svg width="31" height="22" viewBox="0 0 31 22" fill="none" xmlns="http://www.w3.org/2000/svg">
<path d="M12.8353 2.35455C13.83 1.31808 15.2149 0.675262 16.7465 0.675262C18.7826 0.675262 20.559 1.81063 21.5049 3.49607C22.3511 3.11804 23.2676 2.92322 24.1944 2.9244C27.8666 2.9244 30.8437 5.92744 30.8437 9.63179C30.8437 13.3366 27.8666 16.3398 24.1944 16.3398C23.7545 16.34 23.3158 16.2963 22.8846 16.2092C22.0515 17.6951 20.4641 18.699 18.642 18.699C17.9051 18.7 17.1778 18.5326 16.5155 18.2096C15.671 20.196 13.7035 21.5888 11.4104 21.5888C9.0224 21.5888 6.98732 20.0778 6.20605 17.9587C5.86474 18.0313 5.51101 18.069 5.14811 18.069C2.305 18.069 1.28754e-05 15.7404 1.28754e-05 12.8674C-0.00201103 11.9569 0.234604 11.0617 0.686279 10.2712C1.13795 9.48061 1.78892 8.82221 2.5743 8.36159C2.24828 7.61083 2.08045 6.80094 2.08128 5.98244C2.08128 2.67837 4.76363 0 8.07228 0C10.0147 0 11.7409 0.923585 12.8353 2.35455Z" fill="#00A1E0"/>
<path d="M4.47962 11.1953C4.46032 11.2459 4.48661 11.2564 4.49288 11.2653C4.55077 11.3074 4.60963 11.3377 4.66896 11.3714C4.98362 11.5385 5.28055 11.5873 5.59122 11.5873C6.22391 11.5873 6.61672 11.2508 6.61672 10.7089V10.6985C6.61672 10.1976 6.17338 10.0156 5.75729 9.88438L5.70326 9.86665C5.38957 9.76474 5.11894 9.67694 5.11894 9.47034V9.45949C5.11894 9.2828 5.27705 9.15267 5.52224 9.15267C5.79468 9.15267 6.11802 9.24313 6.3263 9.3583C6.3263 9.3583 6.38733 9.39786 6.40976 9.33852C6.42206 9.30692 6.52747 9.02314 6.53857 8.99239C6.55039 8.95898 6.52928 8.93438 6.50781 8.92123C6.2701 8.77651 5.94146 8.67773 5.60135 8.67773L5.53804 8.67822C4.95902 8.67822 4.55475 9.02797 4.55475 9.52932V9.53981C4.55475 10.0684 5.00075 10.2397 5.41852 10.3592L5.48581 10.3799C5.79022 10.4734 6.05265 10.5538 6.05265 10.7683V10.7788C6.05265 10.9748 5.88212 11.1207 5.60702 11.1207C5.50029 11.1207 5.15982 11.1185 4.79198 10.886C4.7476 10.8601 4.72167 10.8412 4.68742 10.8206C4.66933 10.8092 4.62422 10.7893 4.60444 10.8491L4.47962 11.1953ZM13.742 11.1953C13.7227 11.2459 13.749 11.2564 13.7553 11.2653C13.8132 11.3074 13.872 11.3377 13.9313 11.3714C14.2459 11.5385 14.5429 11.5873 14.8536 11.5873C15.4863 11.5873 15.8791 11.2508 15.8791 10.7089V10.6985C15.8791 10.1976 15.4358 10.0156 15.0197 9.88438L14.9656 9.86665C14.652 9.76474 14.3812 9.67694 14.3812 9.47034V9.45949C14.3812 9.2828 14.5394 9.15267 14.7846 9.15267C15.0571 9.15267 15.3804 9.24313 15.5887 9.3583C15.5887 9.3583 15.6497 9.39786 15.6721 9.33852C15.6844 9.30692 15.7899 9.02314 15.8008 8.99239C15.8128 8.95898 15.7917 8.93438 15.7701 8.92123C15.5325 8.77651 15.2037 8.67773 14.8637 8.67773L14.8004 8.67822C14.2213 8.67822 13.8171 9.02797 13.8171 9.52932V9.53981C13.8171 10.0684 14.263 10.2397 14.6809 10.3592L14.7481 10.3799C15.0526 10.4734 15.3154 10.5538 15.3154 10.7683V10.7788C15.3154 10.9748 15.1444 11.1207 14.8694 11.1207C14.5808 11.1228 14.2977 11.0412 14.0544 10.886C14.01 10.8601 13.9836 10.8421 13.9503 10.8206C13.9388 10.8131 13.8852 10.7924 13.8667 10.8491L13.742 11.1953ZM20.0651 10.1341C20.0651 10.4405 20.008 10.6817 19.8956 10.8521C19.7844 11.0209 19.6161 11.103 19.3814 11.103C19.1464 11.103 18.979 11.0213 18.8696 10.8521C18.7589 10.6821 18.7027 10.4405 18.7027 10.1341C18.7027 9.82842 18.7589 9.58757 18.8696 9.41897C18.979 9.25193 19.1464 9.17064 19.3814 9.17064C19.6161 9.17064 19.7843 9.25193 19.8959 9.41885C20.0081 9.58769 20.0651 9.82842 20.0651 10.1341ZM20.5933 9.56646C20.5414 9.39123 20.4606 9.23661 20.3529 9.10781C20.2452 8.97864 20.109 8.87504 19.9473 8.79942C19.7861 8.72429 19.5954 8.68606 19.3814 8.68606C19.167 8.68606 18.9763 8.72429 18.8151 8.79942C18.6535 8.87492 18.5172 8.97864 18.4091 9.10781C18.3019 9.23698 18.221 9.39171 18.1688 9.56646C18.1174 9.74098 18.0916 9.93165 18.0916 10.1341C18.0916 10.3368 18.1174 10.5279 18.1688 10.7018C18.2211 10.8767 18.3014 11.0313 18.4096 11.1606C18.5199 11.2919 18.6585 11.3964 18.8151 11.4663C18.9767 11.5398 19.167 11.5771 19.3814 11.5771C19.5954 11.5771 19.7857 11.5397 19.9473 11.4663C20.1039 11.3964 20.2426 11.2919 20.3529 11.1606C20.4606 11.0318 20.5414 10.8772 20.5933 10.7018C20.6451 10.5274 20.6711 10.3364 20.6711 10.1341C20.6711 9.93214 20.6451 9.74098 20.5933 9.56646ZM24.9301 11.0213C24.9126 10.9699 24.8629 10.9892 24.8629 10.9892C24.7861 11.0187 24.7043 11.0459 24.6173 11.0595C24.5215 11.0737 24.4247 11.0806 24.3278 11.0802C24.0721 11.0802 23.869 11.0042 23.7235 10.8539C23.5777 10.7036 23.496 10.4607 23.4968 10.132C23.4978 9.83288 23.5699 9.60783 23.6994 9.43645C23.8282 9.26604 24.0241 9.1786 24.2856 9.1786C24.5035 9.1786 24.6696 9.20357 24.8436 9.25856C24.8436 9.25856 24.8853 9.27665 24.9051 9.22202C24.9512 9.09382 24.9855 9.00192 25.0348 8.86093C25.0487 8.82089 25.0145 8.80377 25.0022 8.79894C24.9337 8.77217 24.772 8.72863 24.6498 8.71018C24.5356 8.69269 24.4021 8.6834 24.2535 8.6834C24.0316 8.6834 23.8339 8.72115 23.6647 8.79677C23.496 8.87191 23.3528 8.97563 23.2394 9.10479C23.1261 9.23396 23.04 9.38857 22.9824 9.56345C22.9253 9.73784 22.8963 9.92948 22.8963 10.132C22.8963 10.57 23.0145 10.9242 23.2478 11.1834C23.4815 11.4435 23.8327 11.5757 24.2904 11.5757C24.561 11.5757 24.8388 11.5209 25.0381 11.4422C25.0381 11.4422 25.0765 11.4238 25.0598 11.3794L24.9301 11.0213ZM25.8543 9.84084C25.8792 9.67079 25.9263 9.52932 25.9987 9.41909C26.1081 9.25169 26.275 9.15979 26.5097 9.15979C26.7443 9.15979 26.8994 9.25205 27.0106 9.41909C27.0844 9.52932 27.1165 9.67694 27.1292 9.84084H25.8543ZM27.6323 9.46697C27.5875 9.29776 27.4763 9.12686 27.4034 9.04871C27.2882 8.92473 27.1758 8.83814 27.0642 8.7899C26.9021 8.72106 26.7279 8.68578 26.5518 8.68618C26.3287 8.68618 26.1261 8.72356 25.9618 8.80075C25.7971 8.87818 25.6586 8.98359 25.5501 9.11504C25.4415 9.2459 25.3599 9.40196 25.308 9.57901C25.2557 9.75509 25.2294 9.94721 25.2294 10.1497C25.2294 10.3558 25.2567 10.5477 25.3107 10.7204C25.3651 10.8944 25.4522 11.0478 25.57 11.1747C25.6872 11.3026 25.8383 11.4028 26.0194 11.4726C26.1991 11.5421 26.4174 11.5781 26.6682 11.5777C27.1845 11.5758 27.4566 11.4608 27.5685 11.3988C27.5883 11.3879 27.6072 11.3685 27.5835 11.3132L27.4666 10.9859C27.4491 10.937 27.3994 10.9551 27.3994 10.9551C27.2716 11.0025 27.0897 11.0878 26.6657 11.0869C26.3884 11.0864 26.1828 11.0047 26.0541 10.8768C25.9218 10.746 25.8573 10.5536 25.8458 10.282L27.6336 10.2837C27.6336 10.2837 27.6807 10.2829 27.6855 10.2371C27.6872 10.2178 27.747 9.86978 27.6323 9.46697ZM11.5365 9.84084C11.562 9.67079 11.6085 9.52932 11.6811 9.41909C11.7905 9.25169 11.9574 9.15979 12.192 9.15979C12.4267 9.15979 12.5818 9.25205 12.6933 9.41909C12.7668 9.52932 12.7989 9.67694 12.8115 9.84084H11.5365ZM13.3142 9.46697C13.2694 9.29776 13.1586 9.12686 13.0857 9.04871C12.9706 8.92473 12.8581 8.83814 12.7465 8.7899C12.5845 8.72106 12.4102 8.68578 12.2342 8.68618C12.0115 8.68618 11.8085 8.72356 11.6442 8.80075C11.4793 8.87818 11.341 8.98359 11.2325 9.11504C11.1239 9.2459 11.0423 9.40196 10.9904 9.57901C10.9386 9.75509 10.9118 9.94721 10.9118 10.1497C10.9118 10.3558 10.9389 10.5477 10.9931 10.7204C11.0475 10.8944 11.1345 11.0478 11.2523 11.1747C11.3696 11.3026 11.5207 11.4028 11.7017 11.4726C11.8814 11.5421 12.0997 11.5781 12.3506 11.5777C12.8669 11.5758 13.1389 11.4608 13.2509 11.3988C13.2707 11.3879 13.2895 11.3685 13.2659 11.3132L13.1495 10.9859C13.1314 10.937 13.0818 10.9551 13.0818 10.9551C12.954 11.0025 12.7725 11.0878 12.3476 11.0869C12.0708 11.0864 11.8652 11.0047 11.7365 10.8768C11.6042 10.746 11.5395 10.5536 11.5282 10.282L13.3159 10.2837C13.3159 10.2837 13.3629 10.2829 13.3678 10.2371C13.3696 10.2178 13.4293 9.86978 13.3142 9.46697ZM7.67224 11.0114C7.60229 10.9557 7.59264 10.9416 7.56901 10.9055C7.53379 10.8507 7.51582 10.7724 7.51582 10.6731C7.51582 10.5159 7.56768 10.403 7.67526 10.327C7.67405 10.3274 7.82903 10.1929 8.19386 10.1977C8.4499 10.2013 8.6788 10.2391 8.6788 10.2391V11.0519H8.67929C8.67929 11.0519 8.45207 11.1007 8.19639 11.116C7.83253 11.1379 7.67092 11.0111 7.67224 11.0114ZM8.38357 9.75533C8.31108 9.75002 8.21713 9.74689 8.10461 9.74689C7.9512 9.74689 7.8031 9.76618 7.6644 9.80357C7.53046 9.83827 7.40392 9.89695 7.29089 9.97676C7.18295 10.0538 7.09422 10.1546 7.0316 10.2715C6.9684 10.3893 6.93632 10.5282 6.93632 10.6836C6.93632 10.8419 6.96345 10.9793 7.01797 11.0919C7.07112 11.2031 7.15136 11.2992 7.25134 11.3713C7.35059 11.4438 7.47325 11.497 7.61556 11.5291C7.7557 11.5611 7.91466 11.5773 8.08869 11.5773C8.27201 11.5773 8.45472 11.5625 8.63177 11.5321C8.78245 11.5061 8.93259 11.4771 9.0821 11.4451C9.14144 11.431 9.20741 11.413 9.20741 11.413C9.25179 11.4021 9.24818 11.3545 9.24818 11.3545L9.24733 9.71975C9.24733 9.3612 9.15157 9.09539 8.96307 8.93064C8.77553 8.76626 8.4991 8.68328 8.14188 8.68328C8.00801 8.68328 7.79212 8.70173 7.66308 8.72766C7.66308 8.72766 7.27232 8.80316 7.11156 8.92883C7.11156 8.92883 7.07646 8.95078 7.09576 8.99999L7.22239 9.34009C7.23807 9.38399 7.28076 9.36904 7.28076 9.36904C7.28076 9.36904 7.29439 9.36385 7.31019 9.35456C7.65415 9.16739 8.08917 9.17318 8.08917 9.17318C8.2825 9.17318 8.43096 9.21177 8.53118 9.28871C8.62875 9.36337 8.67832 9.47625 8.67832 9.71445V9.78994C8.52455 9.76799 8.38357 9.75533 8.38357 9.75533ZM22.803 8.83404C22.8056 8.82807 22.8069 8.82165 22.8069 8.81515C22.807 8.80866 22.8057 8.80222 22.8032 8.79623C22.8007 8.79024 22.797 8.78481 22.7923 8.78029C22.7877 8.77576 22.7821 8.77222 22.7761 8.76988C22.7458 8.75806 22.5937 8.72598 22.4764 8.7185C22.2519 8.70487 22.1271 8.74262 22.0156 8.79279C21.9048 8.84284 21.7818 8.92365 21.7132 9.01555V8.79798C21.7132 8.76771 21.6917 8.74358 21.6618 8.74358H21.2035C21.1737 8.74358 21.1521 8.76771 21.1521 8.79798V11.4645C21.1521 11.4944 21.1768 11.519 21.2067 11.519H21.6763C21.6834 11.519 21.6905 11.5176 21.697 11.5148C21.7036 11.5121 21.7096 11.508 21.7146 11.503C21.7196 11.4979 21.7236 11.4919 21.7263 11.4853C21.729 11.4787 21.7304 11.4717 21.7303 11.4645V10.1323C21.7303 9.9536 21.7501 9.77511 21.7897 9.66319C21.8283 9.55235 21.8811 9.46371 21.9461 9.39991C22.0082 9.33876 22.084 9.29328 22.1672 9.26725C22.2501 9.2418 22.342 9.23348 22.407 9.23348C22.5006 9.23348 22.6034 9.2576 22.6034 9.2576C22.6376 9.26158 22.657 9.24047 22.6685 9.20936C22.6991 9.12759 22.7862 8.88276 22.8029 8.83404" fill="white"/>
<path d="M18.3795 7.59824C18.3215 7.58077 18.2625 7.56667 18.2028 7.55603C18.1226 7.54287 18.0413 7.53673 17.9599 7.5377C17.6365 7.5377 17.3816 7.62899 17.2029 7.80918C17.0249 7.98839 16.9041 8.26132 16.8435 8.62024L16.8214 8.74108H16.4155C16.4155 8.74108 16.3663 8.73927 16.3558 8.79294L16.2895 9.16513C16.2846 9.20022 16.3 9.22265 16.3474 9.22265H16.7424L16.3417 11.4599C16.3106 11.64 16.2745 11.7881 16.2345 11.9005C16.1954 12.0113 16.1573 12.0944 16.1098 12.155C16.0639 12.2129 16.021 12.2561 15.9462 12.281C15.8847 12.3018 15.8136 12.3114 15.7358 12.3114C15.6927 12.3114 15.6352 12.3043 15.5926 12.2956C15.5592 12.2891 15.5267 12.2786 15.4959 12.2643C15.4959 12.2643 15.4498 12.2468 15.4314 12.293C15.4169 12.3312 15.3114 12.6207 15.2987 12.6564C15.2864 12.6919 15.3039 12.7196 15.3263 12.7279C15.379 12.7463 15.4181 12.7586 15.4897 12.7758C15.5891 12.7992 15.6731 12.8004 15.7517 12.8004C15.916 12.8004 16.0662 12.7771 16.1906 12.7323C16.3154 12.6871 16.4243 12.6084 16.521 12.502C16.6251 12.3869 16.6906 12.2666 16.7529 12.1018C16.8149 11.9393 16.8681 11.7371 16.9102 11.5017L17.3131 9.22265H17.9019C17.9019 9.22265 17.9515 9.22434 17.9616 9.17031L18.0284 8.79861C18.0328 8.76303 18.018 8.74108 17.97 8.74108H17.3983C17.4014 8.7283 17.4274 8.52713 17.4928 8.33778C17.5209 8.25734 17.5737 8.19185 17.618 8.14711C17.6598 8.10451 17.7112 8.07254 17.7679 8.05388C17.8246 8.03543 17.8892 8.02662 17.9599 8.02662C18.0135 8.02662 18.0667 8.03278 18.1066 8.0411C18.1621 8.05304 18.1835 8.05919 18.198 8.06353C18.2565 8.08114 18.2644 8.06401 18.2758 8.03579L18.4125 7.66071C18.4266 7.62031 18.3918 7.60306 18.3795 7.59824ZM10.3929 11.4648C10.3929 11.4946 10.3713 11.5188 10.3415 11.5188H9.86742C9.83751 11.5188 9.81641 11.4947 9.81641 11.4648V7.64925C9.81641 7.61947 9.83751 7.59522 9.86742 7.59522H10.3414C10.3713 7.59522 10.3929 7.61934 10.3929 7.64925V11.4648Z" fill="white"/>
</svg>
