<svg width="30" height="30" viewBox="0 0 30 30" fill="none" xmlns="http://www.w3.org/2000/svg">
<path d="M15.003 2.5C8.098 2.5 2.5 8.098 2.5 15.003c0 2.197.574 4.34 1.665 6.234L2.5 27.5l6.43-1.685A12.449 12.449 0 0015.003 27.5C21.908 27.5 27.5 21.908 27.5 15.003 27.5 8.098 21.908 2.5 15.003 2.5z" fill="#25D366"/>
<path d="M21.577 18.493c-.29-.145-1.712-.845-1.977-.941-.266-.097-.46-.145-.653.145-.193.29-.748.941-.917 1.134-.169.193-.338.217-.628.072-.29-.145-1.223-.45-2.33-1.437-.861-.767-1.443-1.715-1.612-2.005-.169-.29-.018-.447.127-.591.13-.13.29-.338.435-.507.145-.169.193-.29.29-.483.096-.193.048-.362-.024-.507-.073-.145-.654-1.576-.896-2.157-.236-.566-.476-.49-.653-.499-.169-.008-.362-.01-.555-.01s-.507.073-.773.362c-.265.29-1.013.99-1.013 2.414 0 1.425 1.037 2.801 1.181 2.994.145.193 2.04 3.114 4.943 4.367.691.298 1.23.476 1.65.61.694.22 1.325.189 1.823.114.556-.083 1.712-.7 1.953-1.376.241-.676.241-1.255.169-1.376-.073-.121-.266-.193-.556-.338z" fill="#fff"/>
</svg>
