<svg width="28" height="28" viewBox="0 0 28 28" fill="none" xmlns="http://www.w3.org/2000/svg">
<path d="M25.2026 2.62501H8.48919C8.35215 2.62466 8.2164 2.65137 8.08971 2.70359C7.96302 2.75582 7.84788 2.83254 7.75091 2.92936C7.65393 3.02618 7.57701 3.14118 7.52457 3.26779C7.47213 3.39439 7.4452 3.5301 7.44531 3.66713V8.31251L17.1307 11.1563L26.2473 8.31251V3.66713C26.2474 3.53002 26.2205 3.39424 26.168 3.26758C26.1155 3.14092 26.0385 3.02588 25.9414 2.92905C25.8443 2.83222 25.7291 2.75552 25.6023 2.70334C25.4755 2.65117 25.3397 2.62454 25.2026 2.62501Z" fill="#41A5EE"/>
<path d="M26.2473 8.3125H7.44531V14L17.1307 15.7063L26.2473 14V8.3125Z" fill="#2B7CD3"/>
<path d="M7.44531 14V19.6875L16.5611 20.825L26.2473 19.6875V14H7.44531Z" fill="#185ABD"/>
<path d="M8.48919 25.375H25.2017C25.3389 25.3756 25.4748 25.349 25.6017 25.2969C25.7286 25.2448 25.8439 25.1681 25.9411 25.0713C26.0383 24.9744 26.1153 24.8593 26.1679 24.7326C26.2204 24.6059 26.2474 24.4701 26.2473 24.3329V19.6875H7.44531V24.3329C7.4452 24.4699 7.47213 24.6056 7.52457 24.7322C7.57701 24.8588 7.65393 24.9738 7.75091 25.0706C7.84788 25.1675 7.96302 25.2442 8.08971 25.2964C8.2164 25.3486 8.35215 25.3753 8.48919 25.375Z" fill="#103F91"/>
<path opacity="0.1" d="M14.3771 7.17505H7.44531V21.3938H14.3771C14.6533 21.3924 14.9178 21.2823 15.1134 21.0872C15.3089 20.8921 15.4197 20.6279 15.4218 20.3517V8.21717C15.4197 7.94097 15.3089 7.67671 15.1134 7.48164C14.9178 7.28658 14.6533 7.17642 14.3771 7.17505Z" fill="black"/>
<path opacity="0.2" d="M13.8074 7.74365H7.44531V21.9624H13.8074C14.0836 21.961 14.3482 21.8509 14.5437 21.6558C14.7393 21.4607 14.8501 21.1965 14.8522 20.9203V8.78578C14.8501 8.50957 14.7393 8.24531 14.5437 8.05024C14.3482 7.85518 14.0836 7.74503 13.8074 7.74365Z" fill="black"/>
<path opacity="0.2" d="M13.8074 7.74365H7.44531V20.8249H13.8074C14.0836 20.8235 14.3482 20.7134 14.5437 20.5183C14.7393 20.3232 14.8501 20.059 14.8522 19.7828V8.78578C14.8501 8.50957 14.7393 8.24531 14.5437 8.05024C14.3482 7.85518 14.0836 7.74503 13.8074 7.74365Z" fill="black"/>
<path opacity="0.2" d="M13.2378 7.74365H7.44531V20.8249H13.2378C13.514 20.8235 13.7786 20.7134 13.9741 20.5183C14.1697 20.3232 14.2805 20.059 14.2826 19.7828V8.78578C14.2805 8.50957 14.1697 8.24531 13.9741 8.05024C13.7786 7.85518 13.514 7.74503 13.2378 7.74365Z" fill="black"/>
<path d="M2.79475 7.74366H13.2405C13.5172 7.74343 13.7827 7.85306 13.9786 8.04847C14.1745 8.24388 14.2848 8.50908 14.2852 8.78578V19.214C14.2848 19.4907 14.1745 19.7559 13.9786 19.9513C13.7827 20.1468 13.5172 20.2564 13.2405 20.2562H2.79475C2.65764 20.2566 2.5218 20.23 2.395 20.1778C2.26821 20.1256 2.15297 20.0489 2.0559 19.9521C1.95883 19.8553 1.88184 19.7402 1.82934 19.6136C1.77685 19.4869 1.74988 19.3511 1.75 19.214V8.78578C1.74988 8.64868 1.77685 8.51289 1.82934 8.38623C1.88184 8.25957 1.95883 8.14453 2.0559 8.0477C2.15297 7.95087 2.26821 7.87417 2.395 7.82199C2.5218 7.76982 2.65764 7.7432 2.79475 7.74366Z" fill="url(#paint0_linear_128_326)"/>
<path d="M6.03531 15.7395C6.05573 15.9005 6.06915 16.0408 6.07556 16.1604H6.10006C6.10881 16.0466 6.12777 15.9095 6.15694 15.7491C6.20069 15.5085 6.21119 15.4534 6.23481 15.3422L7.33294 10.6111H8.75394L9.89144 15.2714C9.95713 15.5597 10.0045 15.852 10.0332 16.1464H10.0524C10.0743 15.8598 10.1137 15.5749 10.1706 15.2932L11.0797 10.605H12.3721L10.7761 17.3845H9.26494L8.18256 12.8992C8.15106 12.7697 8.11548 12.6011 8.07581 12.3935C8.03615 12.1858 8.01165 12.0341 8.00231 11.9385H7.98394C7.97169 12.0487 7.94719 12.2124 7.91044 12.4294C7.87369 12.6464 7.84452 12.8074 7.82294 12.9124L6.80531 17.3871H5.26881L3.66406 10.6111H4.97656L5.96619 15.3519C5.99503 15.48 6.0181 15.6093 6.03531 15.7395Z" fill="white"/>
<defs>
<linearGradient id="paint0_linear_128_326" x1="3.93225" y1="6.92466" x2="12.103" y2="21.0752" gradientUnits="userSpaceOnUse">
<stop stop-color="#2368C4"/>
<stop offset="0.5" stop-color="#1A5DBE"/>
<stop offset="1" stop-color="#1146AC"/>
</linearGradient>
</defs>
</svg>
